<?xml version="1.0" encoding="UTF-8"?>
<svg width="14px" height="15px" viewBox="0 0 14 15" version="1.1" xmlns="http://www.w3.org/2000/svg" xmlns:xlink="http://www.w3.org/1999/xlink">
    <title>icon</title>
    <g id="Home" stroke="none" stroke-width="1" fill="none" fill-rule="evenodd">
        <g id="Home-1440---v3---Ivy-Mode-Light" transform="translate(-1268.000000, -42.000000)" stroke="#FFFFFF" stroke-width="1.5">
            <g id="account" transform="translate(1267.000000, 41.000000)">
                <g id="icon" transform="translate(2.000000, 1.000000)">
                    <path d="M2.60123087,8 C1.00988418,8.7718383 -0.000437101969,10.3851974 -1.8189894e-12,12.1538462 L-1.8189894e-12,12.1538462 C-1.8189894e-12,12.1538462 1.84615396,14 6,14 C10.1538461,14 12,12.1538462 12,12.1538462 L12,12.1538462 C12.0002657,10.3849887 10.9895521,8.77157562 9.39784614,8" id="Path" stroke-linecap="round" stroke-linejoin="round"></path>
                    <path d="M6,0.75 C6.6195809,0.75 7.17977342,1.00758866 7.58555141,1.42182036 C7.99686883,1.8417069 8.25,2.42212348 8.25,3.0625 C8.25,3.81348721 7.92495934,4.69132496 7.42177952,5.35174847 C7.04639082,5.84444614 6.56383416,6.25 6,6.25 C5.43616584,6.25 4.95360918,5.84444614 4.57822048,5.35174847 C4.07504066,4.69132496 3.75,3.81348721 3.75,3.0625 C3.75,2.42212348 4.00313117,1.8417069 4.41444859,1.42182036 C4.82022658,1.00758866 5.3804191,0.75 6,0.75 Z" id="Path"></path>
                </g>
            </g>
        </g>
    </g>
</svg>