<?xml version="1.0" encoding="UTF-8"?>
<svg width="65px" height="66px" viewBox="0 0 65 66" version="1.1" xmlns="http://www.w3.org/2000/svg" xmlns:xlink="http://www.w3.org/1999/xlink">
    <title>icon</title>
    <g id="Home" stroke="none" stroke-width="1" fill="none" fill-rule="evenodd">
        <g id="Home-1440---v3---Ivy-Mode-Light" transform="translate(-1236.000000, -2751.000000)" stroke="#231F20" stroke-width="1.2">
            <g id="our-promise" transform="translate(-0.750000, 2208.000000)">
                <g id="icons" transform="translate(768.250000, 544.000000)">
                    <g id="clean" transform="translate(449.500000, 0.000000)">
                        <g id="icon" transform="translate(20.000000, 0.000000)">
                            <path d="M25.5991916,31.194624 C30.8361432,36.4307672 30.4343579,45.3217819 30.4343579,45.3217819 C30.4343579,45.3217819 21.5441516,45.7219503 16.3080084,40.4858072 C11.0718653,35.249664 11.4728421,26.3594577 11.4728421,26.3594577 C11.4728421,26.3594577 20.3630484,25.9584808 25.5991916,31.194624 Z" id="Stroke-36"></path>
                            <path d="M35.28448,23.8209347 C30.0475284,29.0570779 30.4493137,37.9472842 30.4493137,37.9472842 C30.4493137,37.9472842 39.33952,38.3482611 44.5756632,33.1121179 C49.8118063,27.8759747 49.4108295,18.9857684 49.4108295,18.9857684 C49.4108295,18.9857684 40.5206232,18.5847916 35.28448,23.8209347 Z" id="Stroke-38"></path>
                            <line x1="30.4418762" y1="36.7647259" x2="30.4418762" y2="49.2855512" id="Stroke-40"></line>
                            <polyline id="Stroke-42" points="62.7202695 16.7057785 60.9724632 21.2507217 56.4283284 19.5037238"></polyline>
                            <path d="M1.80841095,21.2508025 C6.19086147,9.15924884 17.7844278,0.516419368 31.3933878,0.516419368 C45.0023478,0.516419368 56.5837878,9.15924884 60.9662383,21.2508025" id="Stroke-44"></path>
                            <polyline id="Stroke-46" points="0.00838063158 47.2102535 1.75537853 42.6653103 6.30032168 44.4131166"></polyline>
                            <path d="M1.80841095,42.6656337 C6.19086147,54.7693137 17.7844278,63.4129516 31.3933878,63.4129516 C45.0023478,63.4129516 56.5837878,54.7693137 60.9662383,42.6656337" id="Stroke-48"></path>
                        </g>
                    </g>
                </g>
            </g>
        </g>
    </g>
</svg>