<?xml version="1.0" encoding="UTF-8"?>
<svg width="47px" height="66px" viewBox="0 0 47 66" version="1.1" xmlns="http://www.w3.org/2000/svg" xmlns:xlink="http://www.w3.org/1999/xlink">
    <title>icon</title>
    <g id="Home" stroke="none" stroke-width="1" fill="none" fill-rule="evenodd">
        <g id="Home-1440---v3---Ivy-Mode-Light" transform="translate(-1026.000000, -2751.000000)" stroke="#231F20" stroke-width="1.2">
            <g id="our-promise" transform="translate(-0.750000, 2208.000000)">
                <g id="icons" transform="translate(768.250000, 544.000000)">
                    <g id="proven" transform="translate(233.500000, 0.000000)">
                        <g id="icon" transform="translate(26.000000, 0.000000)">
                            <path d="M34.8961305,8.02448155 L27.9453577,2.0832932 L28.0385616,1.97368544 C29.6796955,0.054431068 32.5652878,-0.171495146 34.4845421,1.4688932 C36.4037965,3.11002718 36.6297227,5.99561942 34.9893344,7.91487379 L34.8961305,8.02448155 Z" id="Stroke-20"></path>
                            <polygon id="Stroke-21" points="13.0893297 30.6780955 8.96226175 27.150515 10.7808559 25.0224839 14.9079239 28.5493188"></polygon>
                            <path d="M8.73931806,45.0898019 L8.74752,45.0980039 C11.7882035,51.4179728 18.2520792,55.7881165 25.7493996,55.7881165 C36.1695938,55.7881165 44.6317608,47.3348971 44.6317608,36.9147029 C44.6317608,26.677934 36.4805219,18.3522175 26.3309918,18.0494913" id="Stroke-22"></path>
                            <polygon id="Stroke-23" points="0.403386408 45.095767 21.4204893 45.095767 21.4204893 41.7821825 0.403386408 41.7821825"></polygon>
                            <path d="M36.1652691,63.5441709 C36.1652691,59.261266 32.082939,55.7896078 27.0469468,55.7896078 C22.0117002,55.7896078 17.9286245,59.261266 17.9286245,63.5441709 L36.1652691,63.5441709 Z" id="Stroke-24"></path>
                            <polygon id="Stroke-25" points="16.3230571 29.7533639 9.37228427 23.8121755 27.9437173 2.08448621 34.8944901 8.02492893"></polygon>
                        </g>
                    </g>
                </g>
            </g>
        </g>
    </g>
</svg>