<?xml version="1.0" encoding="UTF-8"?>
<svg width="24px" height="24px" viewBox="0 0 24 24" version="1.1" xmlns="http://www.w3.org/2000/svg" xmlns:xlink="http://www.w3.org/1999/xlink">
    <title>ig</title>
    <defs>
        <filter id="filter-1">
            <feColorMatrix in="SourceGraphic" type="matrix" values="0 0 0 0 0.921569 0 0 0 0 0.803922 0 0 0 0 0.764706 0 0 0 1.000000 0"></feColorMatrix>
        </filter>
    </defs>
    <g id="Home" stroke="none" stroke-width="1" fill="none" fill-rule="evenodd">
        <g id="Home-1440---v3---Ivy-Mode-Light" transform="translate(-955.000000, -6519.000000)">
            <g id="footer" transform="translate(0.000000, 6359.000000)">
                <g id="ig" transform="translate(955.000000, 120.000000)" filter="url(#filter-1)">
                    <g transform="translate(0.000000, 40.000000)">
                        <rect id="box" x="0" y="0" width="24" height="24"></rect>
                        <path d="M12,3.8 C14.6666667,3.8 14.9866667,3.8 16.04,3.86 C16.6753046,3.86791319 17.3045007,3.98518271 17.9,4.20666667 C18.3337876,4.3656018 18.725854,4.62090086 19.0466667,4.95333333 C19.3790991,5.27414596 19.6343982,5.66621236 19.7933333,6.1 C20.0148173,6.69549932 20.1320868,7.32469538 20.14,7.96 C20.1866667,9.01333333 20.2,9.32666667 20.2,12 C20.2,14.6733333 20.2,14.9866667 20.14,16.04 C20.1320868,16.6753046 20.0148173,17.3045007 19.7933333,17.9 C19.4545779,18.7679912 18.7679912,19.4545779 17.9,19.7933333 C17.3045007,20.0148173 16.6753046,20.1320868 16.04,20.14 C14.9866667,20.1866667 14.7066667,20.2 12,20.2 C9.29333333,20.2 9.01333333,20.2 7.96,20.14 C7.32469538,20.1320868 6.69549932,20.0148173 6.1,19.7933333 C5.66621236,19.6343982 5.27414596,19.3790991 4.95333333,19.0466667 C4.62090086,18.725854 4.3656018,18.3337876 4.20666667,17.9 C3.98518271,17.3045007 3.86791319,16.6753046 3.86,16.04 C3.81333333,14.9866667 3.8,14.6666667 3.8,12 C3.8,9.33333333 3.8,9.01333333 3.86,7.96 C3.86791319,7.32469538 3.98518271,6.69549932 4.20666667,6.1 C4.3656018,5.66621236 4.62090086,5.27414596 4.95333333,4.95333333 C5.27414596,4.62090086 5.66621236,4.3656018 6.1,4.20666667 C6.69549932,3.98518271 7.32469538,3.86791319 7.96,3.86 C9.01333333,3.81333333 9.33333333,3.8 12,3.8 Z M12,2 C9.28666667,2 8.94666667,2 7.88,2.06 C7.04829127,2.0764147 6.22543817,2.23422214 5.44666667,2.52666667 C4.77922578,2.77472769 4.17563585,3.16876941 3.68,3.68 C3.16876941,4.17563585 2.77472769,4.77922578 2.52666667,5.44666667 C2.23422214,6.22543817 2.0764147,7.04829127 2.06,7.88 C2,8.94666667 2,9.28666667 2,12 C2,14.7133333 2,15.0533333 2.06,16.12 C2.0764147,16.9517087 2.23422214,17.7745618 2.52666667,18.5533333 C2.77472769,19.2207742 3.16876941,19.8243642 3.68,20.32 C4.17563585,20.8312306 4.77922578,21.2252723 5.44666667,21.4733333 C6.22543817,21.7657779 7.04829127,21.9235853 7.88,21.94 C8.94666667,21.9866667 9.28666667,22 12,22 C14.7133333,22 15.0533333,22 16.12,21.94 C16.9517087,21.9235853 17.7745618,21.7657779 18.5533333,21.4733333 C19.8934297,20.9530834 20.9530834,19.8934297 21.4733333,18.5533333 C21.7657779,17.7745618 21.9235853,16.9517087 21.94,16.12 C22,15.0533333 22,14.7133333 22,12 C22,9.28666667 22,8.94666667 21.94,7.88 C21.9235853,7.04829127 21.7657779,6.22543817 21.4733333,5.44666667 C21.2252723,4.77922578 20.8312306,4.17563585 20.32,3.68 C19.8243642,3.16876941 19.2207742,2.77472769 18.5533333,2.52666667 C17.7745618,2.23422214 16.9517087,2.0764147 16.12,2.06 C15.0533333,2 14.7133333,2 12,2 Z M12,6.86666667 C9.16493828,6.86666667 6.86666667,9.16493828 6.86666667,12 C6.86666667,14.8350617 9.16493828,17.1333333 12,17.1333333 C14.8350617,17.1333333 17.1333333,14.8350617 17.1333333,12 L17.1333333,12 C17.1333333,9.16493828 14.8350617,6.86666667 12,6.86666667 Z M12,15.3333333 C10.1590508,15.3333333 8.66666667,13.8409492 8.66666667,12 C8.66666667,10.1590508 10.1590508,8.66666667 12,8.66666667 C13.8409492,8.66666667 15.3333333,10.1590508 15.3333333,12 C15.3333333,13.8409492 13.8409492,15.3333333 12,15.3333333 Z M17.3333333,5.45998119 C17.99606,5.45632841 18.5362845,5.99059452 18.5399818,6.65332119 C18.5436413,7.31604786 18.0093807,7.85627781 17.3466541,7.85998198 C16.6839275,7.86364826 16.143692,7.32939326 16.14,6.66666667 C16.1399596,6.00541552 16.6721226,5.46730664 17.3333333,5.45998119 Z" id="Instagram" fill="#767676"></path>
                    </g>
                </g>
            </g>
        </g>
    </g>
</svg>