<?xml version="1.0" encoding="UTF-8"?>
<svg width="24px" height="24px" viewBox="0 0 24 24" version="1.1" xmlns="http://www.w3.org/2000/svg" xmlns:xlink="http://www.w3.org/1999/xlink">
    <title>pt</title>
    <defs>
        <filter id="filter-1">
            <feColorMatrix in="SourceGraphic" type="matrix" values="0 0 0 0 0.921569 0 0 0 0 0.803922 0 0 0 0 0.764706 0 0 0 1.000000 0"></feColorMatrix>
        </filter>
    </defs>
    <g id="Home" stroke="none" stroke-width="1" fill="none" fill-rule="evenodd">
        <g id="Home-1440---v3---Ivy-Mode-Light" transform="translate(-1083.000000, -6519.000000)">
            <g id="footer" transform="translate(0.000000, 6359.000000)">
                <g id="pt" transform="translate(955.000000, 120.000000)" filter="url(#filter-1)">
                    <g transform="translate(128.000000, 40.000000)">
                        <rect id="box" x="0" y="0" width="24" height="24"></rect>
                        <path d="M12.000588,2 C6.47815605,2 2,6.47698007 2,12.000588 C2,16.0941965 4.46251543,19.6127477 7.98694655,21.1591698 C7.95872288,20.4618098 7.98224261,19.6221556 8.15981655,18.8624684 C8.35267831,18.0510378 9.44634562,13.4141236 9.44634562,13.4141236 C9.44634562,13.4141236 9.12765332,12.775563 9.12765332,11.831246 C9.12765332,10.3495031 9.98729935,9.24289998 11.0562709,9.24289998 C11.9653084,9.24289998 12.4051273,9.92614806 12.4051273,10.7446346 C12.4051273,11.658376 11.8218381,13.0260481 11.5219615,14.2925854 C11.2714765,15.3545011 12.0535074,16.2188511 13.1001352,16.2188511 C14.9946493,16.2188511 16.2705945,13.7857353 16.2705945,10.9022167 C16.2705945,8.71135415 14.7947316,7.07085318 12.1099547,7.07085318 C9.07708591,7.07085318 7.18727583,9.33227495 7.18727583,11.8582936 C7.18727583,12.7308755 7.44364085,13.3447404 7.84582819,13.8198389 C8.03163403,14.0397483 8.05632975,14.1267713 7.98929852,14.3784324 C7.94225907,14.5607103 7.83171635,15.0052331 7.78585288,15.1804551 C7.71882166,15.4332922 7.51420004,15.5250191 7.28605868,15.4309402 C5.8878109,14.8605868 5.23749045,13.3306286 5.23749045,11.6101605 C5.23749045,8.77015347 7.63297466,5.362145 12.3839595,5.362145 C16.2023873,5.362145 18.7154701,8.12688893 18.7154701,11.0915505 C18.7154701,15.014641 16.5351914,17.945199 13.3188687,17.945199 C12.2404892,17.945199 11.224437,17.3619098 10.876345,16.6998295 C10.876345,16.6998295 10.2954078,19.0035868 10.1731052,19.4481096 C9.96142765,20.2183807 9.54630446,20.9898277 9.16646087,21.5895808 C10.0660904,21.8553537 11.0162874,22 12.000588,22 C17.5230199,22 22,17.5230199 22,12.000588 C22,6.47698007 17.5230199,2 12.000588,2" id="Pinterest" fill="#767676"></path>
                    </g>
                </g>
            </g>
        </g>
    </g>
</svg>