<?xml version="1.0" encoding="UTF-8"?>
<svg width="24px" height="24px" viewBox="0 0 24 24" version="1.1" xmlns="http://www.w3.org/2000/svg" xmlns:xlink="http://www.w3.org/1999/xlink">
    <title>tw</title>
    <defs>
        <filter id="filter-1">
            <feColorMatrix in="SourceGraphic" type="matrix" values="0 0 0 0 0.921569 0 0 0 0 0.803922 0 0 0 0 0.764706 0 0 0 1.000000 0"></feColorMatrix>
        </filter>
    </defs>
    <g id="Home" stroke="none" stroke-width="1" fill="none" fill-rule="evenodd">
        <g id="Home-1440---v3---Ivy-Mode-Light" transform="translate(-1147.000000, -6519.000000)">
            <g id="footer" transform="translate(0.000000, 6359.000000)">
                <g id="tw" transform="translate(955.000000, 120.000000)" filter="url(#filter-1)">
                    <g transform="translate(192.000000, 40.000000)">
                        <rect id="box" x="0" y="0" width="24" height="24"></rect>
                        <path d="M22,5.8941134 C21.2651288,6.21538462 20.4739097,6.43264717 19.6439514,6.52972192 C20.4915185,6.03048032 21.1418677,5.23885879 21.4482597,4.29584688 C20.6546927,4.75810762 19.7777778,5.09440231 18.8409931,5.274684 C18.0943828,4.48999639 17.0272935,4 15.8463344,4 C13.5818513,4 11.7446734,5.80859516 11.7446734,8.03900325 C11.7446734,8.35565186 11.7798908,8.66305525 11.8503258,8.95890213 C8.44010096,8.79017696 5.4172683,7.18382087 3.3922639,4.73730589 C3.0389153,5.33593355 2.83700182,6.03048032 2.83700182,6.77009751 C2.83700182,8.17074756 3.56130774,9.40729505 4.66244057,10.1318888 C3.99096085,10.1122427 3.35704643,9.92849404 2.80295827,9.62802456 L2.80295827,9.67771759 C2.80295827,11.6353918 4.21752656,13.2683279 6.09579151,13.6381365 C5.75183424,13.7329 5.38909432,13.7802817 5.01461525,13.7802817 C4.75048424,13.7802817 4.49222281,13.756013 4.24217879,13.7086313 C4.76457123,15.3126761 6.27892235,16.4810401 8.07501321,16.5122427 C6.67101015,17.5962441 4.90074544,18.2422535 2.97904561,18.2422535 C2.64800141,18.2422535 2.32047896,18.2237631 2,18.1867822 C3.81604743,19.3308776 5.97370429,20 8.28983976,20 C15.838117,20 19.9644304,13.8461538 19.9644304,8.50819791 C19.9644304,8.33253882 19.9609086,8.15687974 19.9538651,7.98468761 C20.7556495,7.41495125 21.4517814,6.70422535 22,5.8941134" id="Twitter" fill="#767676"></path>
                    </g>
                </g>
            </g>
        </g>
    </g>
</svg>