<?xml version="1.0" encoding="UTF-8"?>
<svg width="24px" height="24px" viewBox="0 0 24 24" version="1.1" xmlns="http://www.w3.org/2000/svg" xmlns:xlink="http://www.w3.org/1999/xlink">
    <title>yt</title>
    <defs>
        <filter id="filter-1">
            <feColorMatrix in="SourceGraphic" type="matrix" values="0 0 0 0 0.921569 0 0 0 0 0.803922 0 0 0 0 0.764706 0 0 0 1.000000 0"></feColorMatrix>
        </filter>
    </defs>
    <g id="Home" stroke="none" stroke-width="1" fill="none" fill-rule="evenodd">
        <g id="Home-1440---v3---Ivy-Mode-Light" transform="translate(-1211.000000, -6519.000000)">
            <g id="footer" transform="translate(0.000000, 6359.000000)">
                <g id="yt" transform="translate(955.000000, 120.000000)" filter="url(#filter-1)">
                    <g transform="translate(256.000000, 40.000000)">
                        <rect id="box" x="0" y="0" width="24" height="24"></rect>
                        <path d="M21.5804196,6.50133333 C21.3511086,5.5169858 20.6757586,4.75050094 19.8135198,4.496 C18.2424242,4 11.986014,4 11.986014,4 C11.986014,4 5.72960373,4 4.17249417,4.46933333 C3.31693972,4.75149265 2.65012829,5.52037914 2.41025641,6.50133333 C2,8.29333333 2,12 2,12 C2,12 2,15.7333333 2.41025641,17.4933333 C2.64498349,18.4765885 3.31425603,19.2462873 4.17249417,19.52 C5.75291375,20 11.986014,20 11.986014,20 C11.986014,20 18.2424242,20 19.8135198,19.5306667 C20.6756314,19.2692584 21.349639,18.5002282 21.5804196,17.5146667 C22,15.7333333 22,12.0213333 22,12.0213333 C22,12.0213333 21.995338,8.29333333 21.5804196,6.50133333 Z M10,15.424 L10,8.576 L15.1934732,12 L10,15.424 Z" id="YouTube" fill="#767676"></path>
                    </g>
                </g>
            </g>
        </g>
    </g>
</svg>